<svg width="110" height="77" fill="none" xmlns="http://www.w3.org/2000/svg"><path opacity=".6" d="m75.451 38.185 23.547-6.727v30.593a5.512 5.512 0 0 1-4.16 5.328l-37.193 9.299c-1.75.43-3.578.43-5.328 0l-37.151-9.299a5.483 5.483 0 0 1-4.167-5.328V31.458l23.547 6.738c.742.22 1.512.33 2.286.326a8.36 8.36 0 0 0 7.132-4.039L55 16.162 66.05 34.483a8.331 8.331 0 0 0 7.115 4.022 7.904 7.904 0 0 0 2.286-.32Z" fill="#5061FC"/><path d="m109.712 19.228-8.851-17.675a2.807 2.807 0 0 0-2.87-1.53L54.999 5.506l15.76 26.141a2.826 2.826 0 0 0 3.18 1.255l34.013-9.71a2.83 2.83 0 0 0 1.76-3.964ZM9.15 1.553.299 19.228a2.801 2.801 0 0 0 1.736 3.953l34.013 9.71a2.827 2.827 0 0 0 3.18-1.254l15.77-26.131L12.004.03A2.808 2.808 0 0 0 9.15 1.553Z" fill="#5061FC"/><g opacity=".2" stroke="#222" stroke-width="1.5" stroke-linecap="round" stroke-linejoin="round"><path d="M83.588 58.613v-1.35c0-.716-.272-1.325-.757-1.694s-1.142-.467-1.828-.272l-5.17 1.465c-.686.194-1.343.665-1.828 1.309-.485.643-.757 1.407-.757 2.123v1.35M78.417 53.33c1.428-.404 2.585-1.94 2.585-3.431s-1.157-2.372-2.585-1.967c-1.428.405-2.585 1.941-2.585 3.432 0 1.49 1.157 2.37 2.585 1.966Z"/></g><mask id="a" style="mask-type:alpha" maskUnits="userSpaceOnUse" x="10" y="16" width="89" height="61"><path opacity=".6" d="m75.451 38.185 23.547-6.727v30.593a5.512 5.512 0 0 1-4.16 5.328l-37.193 9.299c-1.75.43-3.578.43-5.328 0l-37.151-9.299a5.483 5.483 0 0 1-4.167-5.328V31.458l23.547 6.738c.742.22 1.512.33 2.286.326a8.36 8.36 0 0 0 7.132-4.039L55 16.162 66.05 34.483a8.331 8.331 0 0 0 7.115 4.022 7.904 7.904 0 0 0 2.286-.32Z" fill="#5061FC"/></mask><g mask="url(#a)"><path opacity=".37" d="M54.09 15.098h1.502V78.46l-.751.05-.752-.05V15.098Z" fill="#5061FC"/></g></svg>